<svg width="20" height="21" viewBox="0 0 20 21" fill="none" xmlns="http://www.w3.org/2000/svg">
<path d="M1 3.66016C1 2.55559 1.89543 1.66016 3 1.66016H6.27924C6.70967 1.66016 7.09181 1.93559 7.22792 2.34393L8.72574 6.83737C8.88311 7.30948 8.66938 7.82547 8.22427 8.04802L5.96701 9.17665C7.06925 11.6214 9.03878 13.5909 11.4835 14.6932L12.6121 12.4359C12.8347 11.9908 13.3507 11.777 13.8228 11.9344L18.3162 13.4322C18.7246 13.5683 19 13.9505 19 14.3809V17.6602C19 18.7647 18.1046 19.6602 17 19.6602H16C7.71573 19.6602 1 12.9444 1 4.66016V3.66016Z" stroke="white" stroke-width="2" stroke-linecap="round" stroke-linejoin="round"/>
</svg>
