<svg width="21" height="23" viewBox="0 0 21 23" fill="none" xmlns="http://www.w3.org/2000/svg">
<path d="M2.68636 9.35367C2.72659 8.85248 2.95412 8.38482 3.32364 8.04384C3.69316 7.70286 4.17756 7.51357 4.68036 7.51367H16.7384C17.2412 7.51357 17.7256 7.70286 18.0951 8.04384C18.4646 8.38482 18.6921 8.85248 18.7324 9.35367L19.5354 19.3537C19.5575 19.6289 19.5223 19.9056 19.4322 20.1666C19.3421 20.4276 19.1989 20.667 19.0117 20.8699C18.8245 21.0728 18.5973 21.2348 18.3444 21.3456C18.0915 21.4564 17.8184 21.5136 17.5424 21.5137H3.87636C3.60029 21.5136 3.32721 21.4564 3.07434 21.3456C2.82147 21.2348 2.59427 21.0728 2.40706 20.8699C2.21984 20.667 2.07666 20.4276 1.98653 20.1666C1.8964 19.9056 1.86128 19.6289 1.88336 19.3537L2.68636 9.35367V9.35367Z" stroke="white" stroke-width="2" stroke-linecap="round" stroke-linejoin="round"/>
<path d="M14.709 10.5137V5.51367C14.709 4.45281 14.2876 3.43539 13.5374 2.68524C12.7873 1.9351 11.7699 1.51367 10.709 1.51367C9.64812 1.51367 8.6307 1.9351 7.88056 2.68524C7.13041 3.43539 6.70898 4.45281 6.70898 5.51367V10.5137" stroke="white" stroke-width="2" stroke-linecap="round" stroke-linejoin="round"/>
</svg>
